<svg width="32" height="32" viewBox="0 0 32 32" fill="none" xmlns="http://www.w3.org/2000/svg">
<rect width="32" height="32" rx="16" fill="#182848"/>
<circle cx="15.9684" cy="19.9001" r="0.693056" fill="#11FFBD"/>
<circle cx="12.1003" cy="19.9001" r="0.693056" fill="#11FFBD"/>
<circle cx="19.8366" cy="19.9001" r="0.693056" fill="#11FFBD"/>
<circle cx="17.902" cy="19.9001" r="0.693056" fill="#11FFBD"/>
<circle cx="14.0339" cy="17.966" r="0.693056" fill="#11FFBD"/>
<circle cx="14.0339" cy="19.9001" r="0.693056" fill="#11FFBD"/>
<circle cx="15.9684" cy="12.1638" r="0.693056" fill="#11FFBD"/>
<circle cx="12.1003" cy="12.1638" r="0.693056" fill="#11FFBD"/>
<circle cx="19.8366" cy="12.1638" r="0.693056" fill="#11FFBD"/>
<circle cx="17.902" cy="12.1638" r="0.693056" fill="#11FFBD"/>
<circle cx="14.0339" cy="12.1638" r="0.693056" fill="#11FFBD"/>
<circle cx="19.8366" cy="14.0978" r="0.693056" fill="#11FFBD"/>
<circle cx="14.0339" cy="14.0978" r="0.693056" fill="#11FFBD"/>
<circle cx="15.9684" cy="16.0319" r="0.693056" fill="#11FFBD"/>
<circle cx="19.8366" cy="17.966" r="0.693056" fill="#11FFBD"/>
<path d="M19.8849 14.171V12.1802H12.084L15.9844 16.0862L12.084 19.9489H19.8849V18.0337" stroke="#11FFBD" stroke-width="0.5"/>
<circle cx="19.8366" cy="16.0646" r="0.53188" fill="#149482"/>
<circle cx="21.7702" cy="16.0646" r="0.53188" fill="#149482"/>
<circle cx="21.7702" cy="12.1637" r="0.53188" fill="#149482"/>
<circle cx="21.7702" cy="14.0983" r="0.53188" fill="#149482"/>
<circle cx="21.7702" cy="19.9" r="0.53188" fill="#149482"/>
<circle cx="21.7862" cy="21.8185" r="0.354587" fill="#17485A"/>
<circle cx="20.0138" cy="23.4303" r="0.354587" fill="#17485A"/>
<circle cx="12.0841" cy="23.4303" r="0.354587" fill="#17485A"/>
<circle cx="10.1817" cy="21.8185" r="0.354587" fill="#17485A"/>
<circle cx="14.0499" cy="23.4303" r="0.354587" fill="#17485A"/>
<circle cx="15.9835" cy="23.4303" r="0.354587" fill="#17485A"/>
<circle cx="17.919" cy="23.4303" r="0.354587" fill="#17485A"/>
<circle cx="20.0138" cy="8.60215" r="0.354587" fill="#17485A"/>
<circle cx="12.0841" cy="8.60215" r="0.354587" fill="#17485A"/>
<circle cx="14.0499" cy="8.60215" r="0.354587" fill="#17485A"/>
<circle cx="15.9835" cy="8.60215" r="0.354587" fill="#17485A"/>
<circle cx="17.919" cy="8.60215" r="0.354587" fill="#17485A"/>
<circle cx="23.3663" cy="12.1803" r="0.354587" fill="#17485A"/>
<circle cx="21.7862" cy="10.2135" r="0.354587" fill="#17485A"/>
<circle cx="23.3663" cy="14.0821" r="0.354587" fill="#17485A"/>
<circle cx="23.3663" cy="16.0484" r="0.354587" fill="#17485A"/>
<circle cx="23.3663" cy="17.9503" r="0.354587" fill="#17485A"/>
<circle cx="23.3663" cy="19.8839" r="0.354587" fill="#17485A"/>
<circle cx="8.57041" cy="14.0821" r="0.354587" fill="#17485A"/>
<circle cx="8.57041" cy="16.0484" r="0.354587" fill="#17485A"/>
<circle cx="8.57041" cy="17.9503" r="0.354587" fill="#17485A"/>
<circle cx="8.57041" cy="19.8839" r="0.354587" fill="#17485A"/>
<circle cx="21.7702" cy="17.9664" r="0.53188" fill="#149482"/>
<circle cx="15.9684" cy="21.8346" r="0.53188" fill="#149482"/>
<circle cx="19.9977" cy="21.8346" r="0.53188" fill="#149482"/>
<circle cx="17.902" cy="21.8346" r="0.53188" fill="#149482"/>
<circle cx="12.067" cy="21.8346" r="0.53188" fill="#149482"/>
<circle cx="14.0338" cy="21.8346" r="0.53188" fill="#149482"/>
<circle cx="15.9684" cy="10.1974" r="0.53188" fill="#149482"/>
<circle cx="19.9977" cy="10.1974" r="0.53188" fill="#149482"/>
<circle cx="17.902" cy="10.1974" r="0.53188" fill="#149482"/>
<circle cx="11.9391" cy="10.1974" r="0.53188" fill="#149482"/>
<circle cx="14.0338" cy="10.2301" r="0.53188" fill="#149482"/>
<circle cx="10.1657" cy="16.0646" r="0.53188" fill="#149482"/>
<circle cx="10.1657" cy="12.1637" r="0.53188" fill="#149482"/>
<circle cx="10.1657" cy="14.0983" r="0.53188" fill="#149482"/>
<circle cx="10.1657" cy="19.9" r="0.53188" fill="#149482"/>
<circle cx="10.1657" cy="17.9664" r="0.53188" fill="#149482"/>
<circle cx="17.902" cy="16.0646" r="0.53188" fill="#149482"/>
<circle cx="15.9684" cy="17.9664" r="0.53188" fill="#149482"/>
<circle cx="17.8698" cy="17.9664" r="0.53188" fill="#149482"/>
<circle cx="15.9684" cy="14.0983" r="0.53188" fill="#149482"/>
<circle cx="17.902" cy="14.0983" r="0.53188" fill="#149482"/>
<circle cx="12.1002" cy="14.0983" r="0.53188" fill="#149482"/>
<circle cx="12.1002" cy="16.0646" r="0.53188" fill="#149482"/>
<circle cx="12.1002" cy="17.9664" r="0.53188" fill="#149482"/>
<circle cx="14.0338" cy="16.0646" r="0.53188" fill="#149482"/>
<circle cx="8.57041" cy="12.1803" r="0.354587" fill="#17485A"/>
<circle cx="10.1817" cy="10.1812" r="0.354587" fill="#17485A"/>
<circle cx="16.0003" cy="15.9998" r="10.1136" stroke="#11FFBD" stroke-width="0.5"/>
</svg>
