<svg width="67" height="67" viewBox="0 0 67 67" fill="none" xmlns="http://www.w3.org/2000/svg">
<path d="M9.84663 11.2117C15.7457 4.95135 23.8861 1.2849 32.4837 1.01591C41.0813 0.746922 49.4349 3.89733 55.7138 9.77672C61.9927 15.6561 65.6847 23.7849 65.9807 32.3816C66.2767 40.9784 63.1526 49.3419 57.2929 55.6392C51.4333 61.9365 43.3162 65.6541 34.7204 65.9771C26.1246 66.3001 17.7514 63.2022 11.4357 57.3624C5.11996 51.5226 1.37695 43.4171 1.02694 34.8224C0.676936 26.2277 3.74847 17.8448 9.56842 11.5107" fill="#4A36D2"/>
<path d="M9.84663 11.2117C15.7457 4.95135 23.8861 1.2849 32.4837 1.01591C41.0813 0.746922 49.4349 3.89733 55.7138 9.77672C61.9927 15.6561 65.6847 23.7849 65.9807 32.3816C66.2767 40.9784 63.1526 49.3419 57.2929 55.6392C51.4333 61.9365 43.3162 65.6541 34.7204 65.9771C26.1246 66.3001 17.7514 63.2022 11.4357 57.3624C5.11996 51.5226 1.37695 43.4171 1.02694 34.8224C0.676936 26.2277 3.74847 17.8448 9.56842 11.5107" stroke="#3130CD" stroke-width="1.574" stroke-linejoin="bevel" stroke-dasharray="9.44 1.57"/>
<path d="M19.1954 28.0527H11.63L9.93086 23.3398H7.4752L14.3709 41.3977H16.4545L23.3626 23.3398H20.9193L19.1954 28.0527ZM12.3493 30.0123H18.4885L15.4127 38.4583L12.3493 30.0123Z" fill="white"/>
<path d="M26.4881 34.1807C26.4964 34.211 26.5005 34.2427 26.5005 34.2758C26.5005 34.3392 26.4881 34.4122 26.4633 34.4949C26.422 34.9304 26.4013 35.319 26.4013 35.6607C26.4013 36.1375 26.4413 36.5248 26.5212 36.8224C26.5295 36.85 26.5336 36.8762 26.5336 36.901C26.5336 36.9781 26.5033 37.0388 26.4426 37.0829C26.3848 37.1297 26.3214 37.1531 26.2525 37.1531C26.2001 37.1531 26.1505 37.138 26.1036 37.1077C26.0568 37.0774 26.0237 37.0277 26.0044 36.9588C25.919 36.6419 25.8735 36.2395 25.868 35.7517C25.6062 36.1734 25.3251 36.5055 25.0246 36.748C24.8427 36.8941 24.6553 36.9768 24.4624 36.996C24.3466 37.0291 24.2336 37.0457 24.1234 37.0457C23.9663 37.0457 23.823 37.0167 23.6935 36.9588C23.5639 36.901 23.4523 36.8279 23.3586 36.7397C23.1905 36.5826 23.0596 36.3801 22.9659 36.132C22.8749 35.8812 22.8294 35.5918 22.8294 35.2639C22.8294 34.8422 22.9273 34.4398 23.1229 34.0567C23.4096 33.4945 23.845 33.1196 24.4293 32.9322C24.6526 32.8578 24.8675 32.8206 25.0743 32.8206C25.3333 32.8206 25.5772 32.8812 25.806 33.0025C26.2056 33.2147 26.433 33.6075 26.4881 34.1807ZM25.9507 34.2179C25.9259 33.9533 25.8391 33.7439 25.6902 33.5895C25.5442 33.4352 25.3443 33.358 25.0908 33.358C24.9392 33.358 24.7738 33.387 24.5947 33.4448C24.151 33.5854 23.8271 33.8569 23.6232 34.2593C23.4523 34.5983 23.3669 34.9359 23.3669 35.2721C23.3669 35.5091 23.3986 35.7214 23.4619 35.9088C23.5253 36.0962 23.6066 36.2367 23.7059 36.3305C23.8299 36.4462 23.9704 36.5041 24.1275 36.5041C24.1799 36.5041 24.2295 36.4986 24.2764 36.4876C24.326 36.4738 24.3811 36.4641 24.4417 36.4586C24.4886 36.4531 24.5809 36.3966 24.7187 36.2891C24.8565 36.1789 25.0026 36.0232 25.1569 35.822C25.314 35.6208 25.4615 35.3948 25.5993 35.144C25.7371 34.8932 25.8487 34.641 25.9341 34.3874C25.9369 34.3599 25.9397 34.3323 25.9424 34.3047C25.9452 34.2744 25.9479 34.2455 25.9507 34.2179Z" fill="white"/>
<path d="M30.5133 34.6602C30.3755 34.6602 30.2515 34.6023 30.1413 34.4865C30.031 34.3763 29.9814 34.2468 29.9924 34.0979C30.02 33.5467 30.0338 32.7226 30.0338 31.6257C30.0338 30.8761 30.0255 29.9969 30.009 28.9882C29.998 27.9739 29.9787 26.8302 29.9511 25.5569L29.8932 23.0102C29.8877 22.8724 29.9318 22.7512 30.0255 22.6464C30.1247 22.5417 30.235 22.4811 30.3562 22.4645C31.4807 22.3157 32.4812 22.2413 33.3576 22.2413C34.5703 22.2413 35.5459 22.3846 36.2846 22.6712C37.7453 23.239 38.4757 24.3883 38.4757 26.1191C38.4757 28.2523 37.1307 29.5421 34.4408 29.9886C34.2864 30.0107 34.1183 30.0327 33.9364 30.0548C33.76 30.0768 33.5671 30.0934 33.3576 30.1044L39.319 33.6432C39.4844 33.7424 39.5671 33.894 39.5671 34.0979C39.5671 34.2633 39.4844 34.4121 39.319 34.5444C39.1592 34.6822 38.9773 34.6905 38.7733 34.5692L31.1583 30.0548C31.1528 30.0493 31.1445 30.0437 31.1335 30.0382C31.1224 30.0272 31.1114 30.0189 31.1004 30.0134C31.1059 30.6418 31.1087 31.2041 31.1087 31.7001C31.1087 32.8136 31.0949 33.6322 31.0673 34.1558C31.0563 34.2991 30.9957 34.4176 30.8854 34.5113C30.7752 34.6106 30.6512 34.6602 30.5133 34.6602ZM31.0921 29.1701C31.1913 29.0929 31.3071 29.0543 31.4394 29.0543C31.6488 29.0598 31.8528 29.0626 32.0512 29.0626C34.0521 29.0626 35.4605 28.798 36.2763 28.2688C37.026 27.7838 37.4008 27.0644 37.4008 26.1108C37.4008 25.4494 37.274 24.9257 37.0204 24.5399C36.4692 23.713 35.2428 23.2996 33.3411 23.2996C32.6465 23.2996 31.8583 23.3547 30.9764 23.465L31.026 25.5403C31.0425 26.2238 31.0563 26.8687 31.0673 27.4751C31.0783 28.0759 31.0866 28.6409 31.0921 29.1701ZM45.5533 36.7934C45.5533 36.9202 45.4871 37.0442 45.3548 37.1654C45.228 37.2922 45.1013 37.3556 44.9745 37.3556C44.8422 37.3556 44.7127 37.2867 44.5859 37.1489C42.3534 34.7015 41.2372 32.2872 41.2372 29.9059C41.2372 28.0318 41.929 26.1797 43.3126 24.3497C44.0347 23.3906 44.4894 22.9055 44.6768 22.8945C44.8422 22.8779 44.9883 22.922 45.115 23.0268C45.2418 23.1315 45.3052 23.2528 45.3052 23.3906C45.3052 23.5449 45.2225 23.7185 45.0572 23.9115C43.7894 25.3612 42.9681 26.7199 42.5932 27.9877C42.3783 28.7208 42.2708 29.4016 42.2708 30.03C42.2708 30.482 42.3259 30.9064 42.4361 31.3033C42.9377 33.1113 43.9189 34.8173 45.3796 36.4213C45.4954 36.5481 45.5533 36.6721 45.5533 36.7934ZM47.1986 26.8632C47.1986 26.6593 47.2427 26.4829 47.3309 26.3341C47.4246 26.1797 47.5762 26.1026 47.7857 26.1026C47.929 26.1026 48.0475 26.1604 48.1412 26.2762C48.2404 26.3919 48.2983 26.5242 48.3148 26.6731C48.3314 26.8109 48.3452 26.9762 48.3562 27.1692C48.3727 27.3566 48.3865 27.5715 48.3975 27.8141C49.1527 26.5683 50.1421 25.9455 51.3658 25.9455C52.121 25.9455 52.7797 26.0915 53.3419 26.3837C53.9042 26.6703 54.3672 27.081 54.731 27.6156C54.9845 27.9905 55.1692 28.3929 55.285 28.8228C55.4062 29.2527 55.4669 29.6882 55.4669 30.1292C55.4669 30.7245 55.3676 31.306 55.1692 31.8738C54.9763 32.4415 54.7089 32.9404 54.3672 33.3703C53.7719 34.1145 53.0029 34.4865 52.0604 34.4865C51.9777 34.4865 51.8977 34.4838 51.8206 34.4783C50.7567 34.4121 49.6681 33.8168 48.5546 32.6923C48.5656 33.0341 48.5739 33.4365 48.5794 33.8995C48.5849 34.357 48.5905 34.8724 48.596 35.4457L48.6208 37.4631C48.6208 37.6064 48.5684 37.7332 48.4637 37.8434C48.3589 37.9537 48.2349 38.0088 48.0916 38.0088C47.9428 38.0088 47.8132 37.9564 47.703 37.8517C47.5983 37.7525 47.5459 37.6285 47.5459 37.4796L47.5211 35.4539C47.5046 34.2468 47.488 33.2187 47.4715 32.3699C47.4605 31.521 47.4467 30.8513 47.4301 30.3607C47.3916 30.2504 47.3723 30.0189 47.3723 29.6662C47.3723 29.6441 47.3723 29.6221 47.3723 29.6C47.3723 29.1811 47.3419 28.7181 47.2813 28.211C47.2262 27.7038 47.1986 27.2546 47.1986 26.8632ZM51.3576 27.0203C50.1945 27.0203 49.3015 27.9381 48.6786 29.7736C48.607 29.9886 48.5491 30.1567 48.505 30.278C48.5105 30.3993 48.5133 30.5233 48.5133 30.6501C48.5133 30.7769 48.516 30.9036 48.5215 31.0304C49.7452 32.5407 50.878 33.3345 51.9198 33.4117C51.9584 33.4117 51.997 33.4117 52.0355 33.4117C52.5151 33.4117 52.9313 33.2546 53.284 32.9404C53.6368 32.6207 53.9069 32.2155 54.0943 31.7249C54.2873 31.2289 54.3837 30.7135 54.3837 30.1788C54.3837 29.2417 54.1109 28.481 53.5652 27.8968C53.025 27.3125 52.2891 27.0203 51.3576 27.0203ZM57.1288 36.7934C57.1288 36.6721 57.1867 36.5481 57.3024 36.4213C58.7631 34.8173 59.7443 33.1113 60.2459 31.3033C60.3561 30.9064 60.4113 30.482 60.4113 30.03C60.4113 29.4016 60.3038 28.7208 60.0888 27.9877C59.714 26.7199 58.8927 25.3612 57.6249 23.9115C57.4595 23.7185 57.3768 23.5449 57.3768 23.3906C57.3768 23.2473 57.4402 23.126 57.567 23.0268C57.6938 22.922 57.8398 22.8779 58.0052 22.8945C58.1926 22.9055 58.6474 23.3906 59.3695 24.3497C60.753 26.1797 61.4448 28.0318 61.4448 29.9059C61.4448 32.2872 60.3286 34.7015 58.0962 37.1489C57.9694 37.2867 57.8398 37.3556 57.7075 37.3556C57.5808 37.3556 57.4512 37.2922 57.3189 37.1654C57.1922 37.0442 57.1288 36.9202 57.1288 36.7934Z" fill="white"/>
</svg>
