<svg width="643" height="643" viewBox="0 0 643 643" fill="none" xmlns="http://www.w3.org/2000/svg">
<circle cx="320.5" cy="442.5" r="21.5" fill="#11FFBD"/>
<circle cx="200.5" cy="442.5" r="21.5" fill="#11FFBD"/>
<circle cx="440.5" cy="442.5" r="21.5" fill="#11FFBD"/>
<circle cx="380.5" cy="442.5" r="21.5" fill="#11FFBD"/>
<circle cx="260.5" cy="382.5" r="21.5" fill="#11FFBD"/>
<circle cx="260.5" cy="442.5" r="21.5" fill="#11FFBD"/>
<circle cx="320.5" cy="202.5" r="21.5" fill="#11FFBD"/>
<circle cx="200.5" cy="202.5" r="21.5" fill="#11FFBD"/>
<circle cx="440.5" cy="202.5" r="21.5" fill="#11FFBD"/>
<circle cx="380.5" cy="202.5" r="21.5" fill="#11FFBD"/>
<circle cx="260.5" cy="202.5" r="21.5" fill="#11FFBD"/>
<circle cx="440.5" cy="262.5" r="21.5" fill="#11FFBD"/>
<circle cx="260.5" cy="262.5" r="21.5" fill="#11FFBD"/>
<circle cx="320.5" cy="322.5" r="21.5" fill="#11FFBD"/>
<circle cx="440.5" cy="382.5" r="21.5" fill="#11FFBD"/>
<path d="M442 264.76V203H200L321 324.171L200 444H442V384.589" stroke="#11FFBD" stroke-width="10"/>
<circle cx="440.5" cy="323.5" r="16.5" fill="#149482"/>
<circle cx="500.5" cy="323.5" r="16.5" fill="#149482"/>
<circle cx="500.5" cy="202.5" r="16.5" fill="#149482"/>
<circle cx="500.5" cy="262.5" r="16.5" fill="#149482"/>
<circle cx="500.5" cy="442.5" r="16.5" fill="#149482"/>
<circle cx="501" cy="502" r="11" fill="#17485A"/>
<circle cx="446" cy="552" r="11" fill="#17485A"/>
<circle cx="200" cy="552" r="11" fill="#17485A"/>
<circle cx="141" cy="502" r="11" fill="#17485A"/>
<circle cx="261" cy="552" r="11" fill="#17485A"/>
<circle cx="321" cy="552" r="11" fill="#17485A"/>
<circle cx="381" cy="552" r="11" fill="#17485A"/>
<circle cx="446" cy="92" r="11" fill="#17485A"/>
<circle cx="200" cy="92" r="11" fill="#17485A"/>
<circle cx="261" cy="92" r="11" fill="#17485A"/>
<circle cx="321" cy="92" r="11" fill="#17485A"/>
<circle cx="381" cy="92" r="11" fill="#17485A"/>
<circle cx="550" cy="203" r="11" fill="#17485A"/>
<circle cx="501" cy="142" r="11" fill="#17485A"/>
<circle cx="550" cy="262" r="11" fill="#17485A"/>
<circle cx="550" cy="323" r="11" fill="#17485A"/>
<circle cx="550" cy="382" r="11" fill="#17485A"/>
<circle cx="550" cy="442" r="11" fill="#17485A"/>
<circle cx="91" cy="262" r="11" fill="#17485A"/>
<circle cx="91" cy="323" r="11" fill="#17485A"/>
<circle cx="91" cy="382" r="11" fill="#17485A"/>
<circle cx="91" cy="442" r="11" fill="#17485A"/>
<circle cx="500.5" cy="382.5" r="16.5" fill="#149482"/>
<circle cx="320.5" cy="502.5" r="16.5" fill="#149482"/>
<circle cx="445.5" cy="502.5" r="16.5" fill="#149482"/>
<circle cx="380.5" cy="502.5" r="16.5" fill="#149482"/>
<circle cx="199.5" cy="502.5" r="16.5" fill="#149482"/>
<circle cx="260.5" cy="502.5" r="16.5" fill="#149482"/>
<circle cx="320.5" cy="141.5" r="16.5" fill="#149482"/>
<circle cx="445.5" cy="141.5" r="16.5" fill="#149482"/>
<circle cx="380.5" cy="141.5" r="16.5" fill="#149482"/>
<circle cx="195.5" cy="141.5" r="16.5" fill="#149482"/>
<circle cx="260.5" cy="142.5" r="16.5" fill="#149482"/>
<circle cx="140.5" cy="323.5" r="16.5" fill="#149482"/>
<circle cx="140.5" cy="202.5" r="16.5" fill="#149482"/>
<circle cx="140.5" cy="262.5" r="16.5" fill="#149482"/>
<circle cx="140.5" cy="442.5" r="16.5" fill="#149482"/>
<circle cx="140.5" cy="382.5" r="16.5" fill="#149482"/>
<circle cx="380.5" cy="323.5" r="16.5" fill="#149482"/>
<circle cx="320.5" cy="382.5" r="16.5" fill="#149482"/>
<circle cx="379.5" cy="382.5" r="16.5" fill="#149482"/>
<circle cx="320.5" cy="262.5" r="16.5" fill="#149482"/>
<circle cx="380.5" cy="262.5" r="16.5" fill="#149482"/>
<circle cx="200.5" cy="262.5" r="16.5" fill="#149482"/>
<circle cx="200.5" cy="323.5" r="16.5" fill="#149482"/>
<circle cx="200.5" cy="382.5" r="16.5" fill="#149482"/>
<circle cx="260.5" cy="323.5" r="16.5" fill="#149482"/>
<circle cx="91" cy="203" r="11" fill="#17485A"/>
<circle cx="141" cy="141" r="11" fill="#17485A"/>
<circle cx="321.5" cy="321.5" r="316.5" stroke="#11FFBD" stroke-width="10"/>
</svg>
