<svg width="128" height="128" viewBox="0 0 128 128" fill="none" xmlns="http://www.w3.org/2000/svg">
<circle cx="64" cy="64" r="62.5" stroke="#11FFBD" stroke-width="3"/>
<path d="M64 30C50.1979 30 39 41.2539 39 55.125V78.1562C39 88.5596 47.3984 97 57.75 97C68.1016 97 76.5 88.5596 76.5 78.1562V76.864C83.9707 72.5129 89 64.416 89 55.125C89 41.2539 77.8021 30 64 30ZM74.4108 73.2409C73.125 73.9899 72.3333 75.3704 72.3333 76.864V78.1562C72.3333 86.2379 65.7914 92.8125 57.75 92.8125C49.7086 92.8125 43.1667 86.2379 43.1667 78.1562V55.125C43.1667 43.5799 52.5124 34.1875 64 34.1875C75.4876 34.1875 84.8333 43.5799 84.8333 55.125C84.8333 62.5551 80.8396 69.4968 74.4108 73.2409ZM75.4685 42.9674C72.077 39.7367 67.6743 38.0846 63.1048 38.3996C54.4094 38.8576 47.3333 46.7581 47.3333 56.0124V61.4062C47.3333 62.5636 48.2651 63.5 49.4167 63.5H50.206C52.0676 63.5 53.5833 65.0212 53.5833 66.8942C53.5833 67.7979 53.2314 68.6526 52.5945 69.2946L47.6385 74.2755C46.8247 75.0934 46.8247 76.4183 47.6385 77.2362C48.0454 77.6451 48.5784 77.8495 49.1115 77.8495C49.6445 77.8495 50.1776 77.6451 50.5845 77.2362L55.5426 72.2553C56.9667 70.82 57.75 68.9184 57.75 66.8942C57.75 63.1565 55.0461 60.0403 51.5 59.4229V56.0124C51.5 48.9501 56.8039 42.9224 63.3428 42.5789C66.7893 42.3785 70.0587 43.5807 72.602 46.0058C75.1165 48.4062 76.5 51.6449 76.5 55.125C76.5 56.2823 77.4318 57.2188 78.5833 57.2188C79.7349 57.2188 80.6667 56.2823 80.6667 55.125C80.6667 50.4835 78.8214 46.1652 75.4685 42.9674Z" fill="#11FFBD"/>
</svg>
