<svg width="46" height="46" viewBox="0 0 46 46" fill="none" xmlns="http://www.w3.org/2000/svg">
<path d="M23.0369 24.9622C24.1125 24.9622 24.9845 24.1084 24.9845 23.0552C24.9845 22.0019 24.1125 21.1481 23.0369 21.1481C21.9613 21.1481 21.0893 22.0019 21.0893 23.0552C21.0893 24.1084 21.9613 24.9622 23.0369 24.9622Z" fill="#11FFBD"/>
<path d="M26.1206 21.8785C27.1962 21.8785 28.0682 21.0247 28.0682 19.9714C28.0682 18.9182 27.1962 18.0644 26.1206 18.0644C25.0449 18.0644 24.173 18.9182 24.173 19.9714C24.173 21.0247 25.0449 21.8785 26.1206 21.8785Z" fill="#11FFBD"/>
<path d="M29.2854 18.7948C30.3611 18.7948 31.233 17.9409 31.233 16.8877C31.233 15.8345 30.3611 14.9807 29.2854 14.9807C28.2098 14.9807 27.3378 15.8345 27.3378 16.8877C27.3378 17.9409 28.2098 18.7948 29.2854 18.7948Z" fill="#11FFBD"/>
<path d="M32.4503 15.6299C33.5259 15.6299 34.3979 14.7761 34.3979 13.7228C34.3979 12.6696 33.5259 11.8158 32.4503 11.8158C31.3747 11.8158 30.5027 12.6696 30.5027 13.7228C30.5027 14.7761 31.3747 15.6299 32.4503 15.6299Z" fill="#11FFBD"/>
<path d="M32.4503 21.9596C33.5259 21.9596 34.3979 21.1058 34.3979 20.0526C34.3979 18.9993 33.5259 18.1455 32.4503 18.1455C31.3747 18.1455 30.5027 18.9993 30.5027 20.0526C30.5027 21.1058 31.3747 21.9596 32.4503 21.9596Z" fill="#11FFBD"/>
<path d="M32.4503 28.0459C33.5259 28.0459 34.3979 27.1739 34.3979 26.0982C34.3979 25.0226 33.5259 24.1506 32.4503 24.1506C31.3747 24.1506 30.5027 25.0226 30.5027 26.0982C30.5027 27.1739 31.3747 28.0459 32.4503 28.0459Z" fill="#11FFBD"/>
<path d="M32.3692 34.2133C33.4448 34.2133 34.3168 33.3414 34.3168 32.2657C34.3168 31.1901 33.4448 30.3181 32.3692 30.3181C31.2935 30.3181 30.4216 31.1901 30.4216 32.2657C30.4216 33.3414 31.2935 34.2133 32.3692 34.2133Z" fill="#11FFBD"/>
<path d="M19.9532 21.8785C21.0288 21.8785 21.9008 21.0247 21.9008 19.9714C21.9008 18.9182 21.0288 18.0644 19.9532 18.0644C18.8775 18.0644 18.0056 18.9182 18.0056 19.9714C18.0056 21.0247 18.8775 21.8785 19.9532 21.8785Z" fill="#11FFBD"/>
<path d="M16.8694 18.8758C17.9451 18.8758 18.817 18.022 18.817 16.9688C18.817 15.9156 17.9451 15.0618 16.8694 15.0618C15.7938 15.0618 14.9218 15.9156 14.9218 16.9688C14.9218 18.022 15.7938 18.8758 16.8694 18.8758Z" fill="#11FFBD"/>
<path d="M13.7046 15.6299C14.7802 15.6299 15.6522 14.7761 15.6522 13.7228C15.6522 12.6696 14.7802 11.8158 13.7046 11.8158C12.6289 11.8158 11.757 12.6696 11.757 13.7228C11.757 14.7761 12.6289 15.6299 13.7046 15.6299Z" fill="#11FFBD"/>
<path d="M13.664 21.7973C14.7172 21.7973 15.571 20.9435 15.571 19.8903C15.571 18.8371 14.7172 17.9833 13.664 17.9833C12.6108 17.9833 11.757 18.8371 11.757 19.8903C11.757 20.9435 12.6108 21.7973 13.664 21.7973Z" fill="#11FFBD"/>
<path d="M13.6235 28.0459C14.6991 28.0459 15.5711 27.1739 15.5711 26.0982C15.5711 25.0226 14.6991 24.1506 13.6235 24.1506C12.5478 24.1506 11.6758 25.0226 11.6758 26.0982C11.6758 27.1739 12.5478 28.0459 13.6235 28.0459Z" fill="#11FFBD"/>
<path d="M13.7046 34.1322C14.7802 34.1322 15.6522 33.2784 15.6522 32.2252C15.6522 31.1719 14.7802 30.3181 13.7046 30.3181C12.6289 30.3181 11.757 31.1719 11.757 32.2252C11.757 33.2784 12.6289 34.1322 13.7046 34.1322Z" fill="#11FFBD"/>
<path d="M26.2018 27.6401C27.0533 27.6401 27.7436 26.9498 27.7436 26.0983C27.7436 25.2467 27.0533 24.5564 26.2018 24.5564C25.3502 24.5564 24.6599 25.2467 24.6599 26.0983C24.6599 26.9498 25.3502 27.6401 26.2018 27.6401Z" fill="#11FFBD" fill-opacity="0.6"/>
<path d="M29.2854 24.5564C30.137 24.5564 30.8273 23.8661 30.8273 23.0146C30.8273 22.163 30.137 21.4727 29.2854 21.4727C28.4339 21.4727 27.7436 22.163 27.7436 23.0146C27.7436 23.8661 28.4339 24.5564 29.2854 24.5564Z" fill="#11FFBD" fill-opacity="0.6"/>
<path d="M23.0369 30.7239C23.8885 30.7239 24.5788 30.0336 24.5788 29.182C24.5788 28.3305 23.8885 27.6402 23.0369 27.6402C22.1854 27.6402 21.4951 28.3305 21.4951 29.182C21.4951 30.0336 22.1854 30.7239 23.0369 30.7239Z" fill="#11FFBD" fill-opacity="0.6"/>
<path d="M19.9532 27.6401C20.8047 27.6401 21.495 26.9498 21.495 26.0983C21.495 25.2467 20.8047 24.5564 19.9532 24.5564C19.1016 24.5564 18.4113 25.2467 18.4113 26.0983C18.4113 26.9498 19.1016 27.6401 19.9532 27.6401Z" fill="#11FFBD" fill-opacity="0.6"/>
<path d="M16.7883 24.5564C17.6399 24.5564 18.3302 23.8661 18.3302 23.0146C18.3302 22.163 17.6399 21.4727 16.7883 21.4727C15.9368 21.4727 15.2465 22.163 15.2465 23.0146C15.2465 23.8661 15.9368 24.5564 16.7883 24.5564Z" fill="#11FFBD" fill-opacity="0.6"/>
<path d="M16.8694 30.7239C17.721 30.7239 18.4113 30.0336 18.4113 29.182C18.4113 28.3305 17.721 27.6402 16.8694 27.6402C16.0179 27.6402 15.3276 28.3305 15.3276 29.182C15.3276 30.0336 16.0179 30.7239 16.8694 30.7239Z" fill="#11FFBD" fill-opacity="0.6"/>
<path d="M29.2854 30.7239C30.137 30.7239 30.8273 30.0336 30.8273 29.182C30.8273 28.3305 30.137 27.6402 29.2854 27.6402C28.4339 27.6402 27.7436 28.3305 27.7436 29.182C27.7436 30.0336 28.4339 30.7239 29.2854 30.7239Z" fill="#11FFBD" fill-opacity="0.6"/>
<path d="M23.0369 18.389C23.8885 18.389 24.5788 17.6986 24.5788 16.8471C24.5788 15.9956 23.8885 15.3052 23.0369 15.3052C22.1854 15.3052 21.4951 15.9956 21.4951 16.8471C21.4951 17.6986 22.1854 18.389 23.0369 18.389Z" fill="#11FFBD" fill-opacity="0.6"/>
<path d="M26.2018 15.3053C27.0533 15.3053 27.7436 14.615 27.7436 13.7634C27.7436 12.9119 27.0533 12.2216 26.2018 12.2216C25.3502 12.2216 24.6599 12.9119 24.6599 13.7634C24.6599 14.615 25.3502 15.3053 26.2018 15.3053Z" fill="#11FFBD" fill-opacity="0.6"/>
<path d="M19.9532 15.3053C20.8047 15.3053 21.495 14.615 21.495 13.7634C21.495 12.9119 20.8047 12.2216 19.9532 12.2216C19.1016 12.2216 18.4113 12.9119 18.4113 13.7634C18.4113 14.615 19.1016 15.3053 19.9532 15.3053Z" fill="#11FFBD" fill-opacity="0.6"/>
<path d="M35.6152 24.5564C36.4667 24.5564 37.157 23.8661 37.157 23.0146C37.157 22.163 36.4667 21.4727 35.6152 21.4727C34.7636 21.4727 34.0733 22.163 34.0733 23.0146C34.0733 23.8661 34.7636 24.5564 35.6152 24.5564Z" fill="#11FFBD" fill-opacity="0.6"/>
<path d="M35.534 18.389C36.3856 18.389 37.0759 17.6986 37.0759 16.8471C37.0759 15.9956 36.3856 15.3052 35.534 15.3052C34.6825 15.3052 33.9922 15.9956 33.9922 16.8471C33.9922 17.6986 34.6825 18.389 35.534 18.389Z" fill="#11FFBD" fill-opacity="0.6"/>
<path d="M10.6208 24.5564C11.4724 24.5564 12.1627 23.8661 12.1627 23.0146C12.1627 22.163 11.4724 21.4727 10.6208 21.4727C9.76929 21.4727 9.07898 22.163 9.07898 23.0146C9.07898 23.8661 9.76929 24.5564 10.6208 24.5564Z" fill="#11FFBD" fill-opacity="0.6"/>
<path d="M10.6208 30.7239C11.4724 30.7239 12.1627 30.0336 12.1627 29.182C12.1627 28.3305 11.4724 27.6402 10.6208 27.6402C9.76929 27.6402 9.07898 28.3305 9.07898 29.182C9.07898 30.0336 9.76929 30.7239 10.6208 30.7239Z" fill="#11FFBD" fill-opacity="0.6"/>
<path d="M10.6208 18.389C11.4724 18.389 12.1627 17.6986 12.1627 16.8471C12.1627 15.9956 11.4724 15.3052 10.6208 15.3052C9.76929 15.3052 9.07898 15.9956 9.07898 16.8471C9.07898 17.6986 9.76929 18.389 10.6208 18.389Z" fill="#11FFBD" fill-opacity="0.6"/>
<path d="M35.6152 30.7239C36.4667 30.7239 37.157 30.0336 37.157 29.182C37.157 28.3305 36.4667 27.6402 35.6152 27.6402C34.7636 27.6402 34.0733 28.3305 34.0733 29.182C34.0733 30.0336 34.7636 30.7239 35.6152 30.7239Z" fill="#11FFBD" fill-opacity="0.6"/>
<path d="M35.6152 36.8913C36.4667 36.8913 37.157 36.201 37.157 35.3495C37.157 34.4979 36.4667 33.8076 35.6152 33.8076C34.7636 33.8076 34.0733 34.4979 34.0733 35.3495C34.0733 36.201 34.7636 36.8913 35.6152 36.8913Z" fill="#11FFBD" fill-opacity="0.6"/>
<path d="M29.2854 36.8913C30.137 36.8913 30.8273 36.201 30.8273 35.3495C30.8273 34.4979 30.137 33.8076 29.2854 33.8076C28.4339 33.8076 27.7436 34.4979 27.7436 35.3495C27.7436 36.201 28.4339 36.8913 29.2854 36.8913Z" fill="#11FFBD" fill-opacity="0.6"/>
<path d="M16.7883 36.8913C17.6399 36.8913 18.3302 36.201 18.3302 35.3495C18.3302 34.4979 17.6399 33.8076 16.7883 33.8076C15.9368 33.8076 15.2465 34.4979 15.2465 35.3495C15.2465 36.201 15.9368 36.8913 16.7883 36.8913Z" fill="#11FFBD" fill-opacity="0.6"/>
<path d="M10.5397 36.8913C11.3913 36.8913 12.0816 36.201 12.0816 35.3495C12.0816 34.4979 11.3913 33.8076 10.5397 33.8076C9.68818 33.8076 8.99786 34.4979 8.99786 35.3495C8.99786 36.201 9.68818 36.8913 10.5397 36.8913Z" fill="#11FFBD" fill-opacity="0.6"/>
<path d="M10.6208 12.2216C11.4724 12.2216 12.1627 11.5131 12.1627 10.6391C12.1627 9.76518 11.4724 9.0567 10.6208 9.0567C9.76929 9.0567 9.07898 9.76518 9.07898 10.6391C9.07898 11.5131 9.76929 12.2216 10.6208 12.2216Z" fill="#11FFBD" fill-opacity="0.6"/>
<path d="M16.8694 12.2216C17.721 12.2216 18.4113 11.5313 18.4113 10.6797C18.4113 9.82819 17.721 9.13788 16.8694 9.13788C16.0179 9.13788 15.3276 9.82819 15.3276 10.6797C15.3276 11.5313 16.0179 12.2216 16.8694 12.2216Z" fill="#11FFBD" fill-opacity="0.6"/>
<path d="M29.3666 12.2216C30.2182 12.2216 30.9085 11.5313 30.9085 10.6797C30.9085 9.82819 30.2182 9.13788 29.3666 9.13788C28.5151 9.13788 27.8248 9.82819 27.8248 10.6797C27.8248 11.5313 28.5151 12.2216 29.3666 12.2216Z" fill="#11FFBD" fill-opacity="0.6"/>
<path d="M35.534 12.2216C36.3856 12.2216 37.0759 11.5131 37.0759 10.6391C37.0759 9.76518 36.3856 9.0567 35.534 9.0567C34.6825 9.0567 33.9922 9.76518 33.9922 10.6391C33.9922 11.5131 34.6825 12.2216 35.534 12.2216Z" fill="#11FFBD" fill-opacity="0.6"/>
<path d="M26.2018 33.483C26.874 33.483 27.419 32.938 27.419 32.2657C27.419 31.5934 26.874 31.0485 26.2018 31.0485C25.5295 31.0485 24.9845 31.5934 24.9845 32.2657C24.9845 32.938 25.5295 33.483 26.2018 33.483Z" fill="#11FFBD" fill-opacity="0.2"/>
<path d="M19.9532 33.483C20.6254 33.483 21.1704 32.938 21.1704 32.2657C21.1704 31.5934 20.6254 31.0485 19.9532 31.0485C19.2809 31.0485 18.7359 31.5934 18.7359 32.2657C18.7359 32.938 19.2809 33.483 19.9532 33.483Z" fill="#11FFBD" fill-opacity="0.2"/>
<path d="M23.0368 36.5667C23.7091 36.5667 24.2541 36.0035 24.2541 35.3088C24.2541 34.6141 23.7091 34.051 23.0368 34.051C22.3646 34.051 21.8196 34.6141 21.8196 35.3088C21.8196 36.0035 22.3646 36.5667 23.0368 36.5667Z" fill="#11FFBD" fill-opacity="0.2"/>
<path d="M19.9532 39.7315C20.6254 39.7315 21.1704 39.1684 21.1704 38.4737C21.1704 37.779 20.6254 37.2159 19.9532 37.2159C19.2809 37.2159 18.7359 37.779 18.7359 38.4737C18.7359 39.1684 19.2809 39.7315 19.9532 39.7315Z" fill="#11FFBD" fill-opacity="0.2"/>
<path d="M26.2018 39.7315C26.874 39.7315 27.419 39.1684 27.419 38.4737C27.419 37.779 26.874 37.2159 26.2018 37.2159C25.5295 37.2159 24.9845 37.779 24.9845 38.4737C24.9845 39.1684 25.5295 39.7315 26.2018 39.7315Z" fill="#11FFBD" fill-opacity="0.2"/>
<path d="M13.7046 39.7315C14.3768 39.7315 14.9218 39.1684 14.9218 38.4737C14.9218 37.779 14.3768 37.2159 13.7046 37.2159C13.0323 37.2159 12.4873 37.779 12.4873 38.4737C12.4873 39.1684 13.0323 39.7315 13.7046 39.7315Z" fill="#11FFBD" fill-opacity="0.2"/>
<path d="M32.4503 39.7315C33.1226 39.7315 33.6675 39.1684 33.6675 38.4737C33.6675 37.779 33.1226 37.2159 32.4503 37.2159C31.778 37.2159 31.233 37.779 31.233 38.4737C31.233 39.1684 31.778 39.7315 32.4503 39.7315Z" fill="#11FFBD" fill-opacity="0.2"/>
<path d="M7.45596 33.483C8.12824 33.483 8.67322 32.938 8.67322 32.2657C8.67322 31.5934 8.12824 31.0485 7.45596 31.0485C6.78369 31.0485 6.23871 31.5934 6.23871 32.2657C6.23871 32.938 6.78369 33.483 7.45596 33.483Z" fill="#11FFBD" fill-opacity="0.2"/>
<path d="M7.45596 27.2344C8.12824 27.2344 8.67322 26.6894 8.67322 26.0171C8.67322 25.3448 8.12824 24.7999 7.45596 24.7999C6.78369 24.7999 6.23871 25.3448 6.23871 26.0171C6.23871 26.6894 6.78369 27.2344 7.45596 27.2344Z" fill="#11FFBD" fill-opacity="0.2"/>
<path d="M7.45596 21.1481C8.12824 21.1481 8.67322 20.6031 8.67322 19.9308C8.67322 19.2585 8.12824 18.7136 7.45596 18.7136C6.78369 18.7136 6.23871 19.2585 6.23871 19.9308C6.23871 20.6031 6.78369 21.1481 7.45596 21.1481Z" fill="#11FFBD" fill-opacity="0.2"/>
<path d="M7.45596 14.9807C8.12824 14.9807 8.67322 14.4175 8.67322 13.7229C8.67322 13.0282 8.12824 12.465 7.45596 12.465C6.78369 12.465 6.23871 13.0282 6.23871 13.7229C6.23871 14.4175 6.78369 14.9807 7.45596 14.9807Z" fill="#11FFBD" fill-opacity="0.2"/>
<path d="M38.6989 33.483C39.3712 33.483 39.9161 32.938 39.9161 32.2657C39.9161 31.5934 39.3712 31.0485 38.6989 31.0485C38.0266 31.0485 37.4816 31.5934 37.4816 32.2657C37.4816 32.938 38.0266 33.483 38.6989 33.483Z" fill="#11FFBD" fill-opacity="0.2"/>
<path d="M38.6989 27.3156C39.3712 27.3156 39.9161 26.7706 39.9161 26.0983C39.9161 25.426 39.3712 24.881 38.6989 24.881C38.0266 24.881 37.4816 25.426 37.4816 26.0983C37.4816 26.7706 38.0266 27.3156 38.6989 27.3156Z" fill="#11FFBD" fill-opacity="0.2"/>
<path d="M38.6989 21.1481C39.3712 21.1481 39.9161 20.6031 39.9161 19.9308C39.9161 19.2585 39.3712 18.7136 38.6989 18.7136C38.0266 18.7136 37.4816 19.2585 37.4816 19.9308C37.4816 20.6031 38.0266 21.1481 38.6989 21.1481Z" fill="#11FFBD" fill-opacity="0.2"/>
<path d="M38.6989 14.9807C39.3712 14.9807 39.9161 14.4175 39.9161 13.7229C39.9161 13.0282 39.3712 12.465 38.6989 12.465C38.0266 12.465 37.4816 13.0282 37.4816 13.7229C37.4816 14.4175 38.0266 14.9807 38.6989 14.9807Z" fill="#11FFBD" fill-opacity="0.2"/>
<path d="M23.0368 11.8969C23.7091 11.8969 24.2541 11.352 24.2541 10.6797C24.2541 10.0074 23.7091 9.46243 23.0368 9.46243C22.3646 9.46243 21.8196 10.0074 21.8196 10.6797C21.8196 11.352 22.3646 11.8969 23.0368 11.8969Z" fill="#11FFBD" fill-opacity="0.2"/>
<path d="M19.9532 8.81324C20.6254 8.81324 21.1704 8.26825 21.1704 7.59598C21.1704 6.92371 20.6254 6.37872 19.9532 6.37872C19.2809 6.37872 18.7359 6.92371 18.7359 7.59598C18.7359 8.26825 19.2809 8.81324 19.9532 8.81324Z" fill="#11FFBD" fill-opacity="0.2"/>
<path d="M26.2018 8.81324C26.874 8.81324 27.419 8.25009 27.419 7.55541C27.419 6.86073 26.874 6.29758 26.2018 6.29758C25.5295 6.29758 24.9845 6.86073 24.9845 7.55541C24.9845 8.25009 25.5295 8.81324 26.2018 8.81324Z" fill="#11FFBD" fill-opacity="0.2"/>
<path d="M13.7857 8.81324C14.458 8.81324 15.003 8.26825 15.003 7.59598C15.003 6.92371 14.458 6.37872 13.7857 6.37872C13.1135 6.37872 12.5685 6.92371 12.5685 7.59598C12.5685 8.26825 13.1135 8.81324 13.7857 8.81324Z" fill="#11FFBD" fill-opacity="0.2"/>
<path d="M32.4503 8.81324C33.1226 8.81324 33.6675 8.26825 33.6675 7.59598C33.6675 6.92371 33.1226 6.37872 32.4503 6.37872C31.778 6.37872 31.233 6.92371 31.233 7.59598C31.233 8.26825 31.778 8.81324 32.4503 8.81324Z" fill="#11FFBD" fill-opacity="0.2"/>
<path d="M22.9963 5.40491C23.5117 5.40491 23.9295 4.98709 23.9295 4.47168C23.9295 3.95627 23.5117 3.53845 22.9963 3.53845C22.4809 3.53845 22.063 3.95627 22.063 4.47168C22.063 4.98709 22.4809 5.40491 22.9963 5.40491Z" fill="#11FFBD" fill-opacity="0.1"/>
<path d="M29.3666 5.40491C29.9044 5.40491 30.3404 4.98709 30.3404 4.47168C30.3404 3.95627 29.9044 3.53845 29.3666 3.53845C28.8288 3.53845 28.3928 3.95627 28.3928 4.47168C28.3928 4.98709 28.8288 5.40491 29.3666 5.40491Z" fill="#11FFBD" fill-opacity="0.1"/>
<path d="M16.8289 5.40491C17.3443 5.40491 17.7621 4.98709 17.7621 4.47168C17.7621 3.95627 17.3443 3.53845 16.8289 3.53845C16.3135 3.53845 15.8956 3.95627 15.8956 4.47168C15.8956 4.98709 16.3135 5.40491 16.8289 5.40491Z" fill="#11FFBD" fill-opacity="0.1"/>
<path d="M16.8289 42.4907C17.3443 42.4907 17.7621 42.0547 17.7621 41.5169C17.7621 40.9791 17.3443 40.5431 16.8289 40.5431C16.3135 40.5431 15.8956 40.9791 15.8956 41.5169C15.8956 42.0547 16.3135 42.4907 16.8289 42.4907Z" fill="#11FFBD" fill-opacity="0.1"/>
<path d="M23.0775 42.4906C23.5929 42.4906 24.0107 42.0728 24.0107 41.5574C24.0107 41.042 23.5929 40.6242 23.0775 40.6242C22.562 40.6242 22.1442 41.042 22.1442 41.5574C22.1442 42.0728 22.562 42.4906 23.0775 42.4906Z" fill="#11FFBD" fill-opacity="0.1"/>
<path d="M29.3261 42.4906C29.8415 42.4906 30.2593 42.0728 30.2593 41.5574C30.2593 41.042 29.8415 40.6242 29.3261 40.6242C28.8106 40.6242 28.3928 41.042 28.3928 41.5574C28.3928 42.0728 28.8106 42.4906 29.3261 42.4906Z" fill="#11FFBD" fill-opacity="0.1"/>
<path d="M41.8232 30.1558C42.3386 30.1558 42.7564 29.738 42.7564 29.2226C42.7564 28.7072 42.3386 28.2894 41.8232 28.2894C41.3078 28.2894 40.89 28.7072 40.89 29.2226C40.89 29.738 41.3078 30.1558 41.8232 30.1558Z" fill="#11FFBD" fill-opacity="0.1"/>
<path d="M41.8232 23.9883C42.3386 23.9883 42.7564 23.5705 42.7564 23.0551C42.7564 22.5397 42.3386 22.1219 41.8232 22.1219C41.3078 22.1219 40.89 22.5397 40.89 23.0551C40.89 23.5705 41.3078 23.9883 41.8232 23.9883Z" fill="#11FFBD" fill-opacity="0.1"/>
<path d="M41.8232 17.821C42.3386 17.821 42.7564 17.385 42.7564 16.8472C42.7564 16.3093 42.3386 15.8734 41.8232 15.8734C41.3078 15.8734 40.89 16.3093 40.89 16.8472C40.89 17.385 41.3078 17.821 41.8232 17.821Z" fill="#11FFBD" fill-opacity="0.1"/>
<path d="M4.33173 23.9072C4.84714 23.9072 5.26496 23.4894 5.26496 22.974C5.26496 22.4586 4.84714 22.0407 4.33173 22.0407C3.81632 22.0407 3.3985 22.4586 3.3985 22.974C3.3985 23.4894 3.81632 23.9072 4.33173 23.9072Z" fill="#11FFBD" fill-opacity="0.1"/>
<path d="M4.25055 30.0746C4.76596 30.0746 5.18378 29.6386 5.18378 29.1008C5.18378 28.563 4.76596 28.127 4.25055 28.127C3.73514 28.127 3.31732 28.563 3.31732 29.1008C3.31732 29.6386 3.73514 30.0746 4.25055 30.0746Z" fill="#11FFBD" fill-opacity="0.1"/>
<path d="M4.33173 17.7398C4.84714 17.7398 5.26496 17.322 5.26496 16.8066C5.26496 16.2912 4.84714 15.8734 4.33173 15.8734C3.81632 15.8734 3.3985 16.2912 3.3985 16.8066C3.3985 17.322 3.81632 17.7398 4.33173 17.7398Z" fill="#11FFBD" fill-opacity="0.1"/>
<circle cx="23" cy="23" r="22.5" stroke="#11FFBD"/>
</svg>
