<svg width="128" height="128" viewBox="0 0 128 128" fill="none" xmlns="http://www.w3.org/2000/svg">
<circle cx="64" cy="64" r="62.5" stroke="#11FFBD" stroke-width="3"/>
<path d="M101 80.32C101 81.3813 100.139 82.24 99.075 82.24H93.3C90.7936 82.24 88.6769 80.6301 87.8796 78.4H84.0682C83.8641 78.936 83.6435 79.4718 83.2633 79.9413L82.1692 81.2913C80.4848 83.3726 77.5748 83.9163 75.2625 82.7274L72.8244 85.7237C70.6549 88.36 66.7523 88.7537 64.1242 86.6124L63.391 85.9787C62.0508 87.0587 60.3682 87.7637 58.5504 87.9513C58.227 87.985 57.9055 88 57.5841 88C55.4692 88 53.4352 87.28 51.7696 85.93L41.9848 78.4H37.1204C36.3231 80.6301 34.2063 82.24 31.7 82.24H27.85C26.786 82.24 25.925 81.3813 25.925 80.32C25.925 79.2587 26.786 78.4 27.85 78.4H31.7C32.7621 78.4 33.625 77.5374 33.625 76.48V51.52H25.925C24.861 51.52 24 50.6613 24 49.6C24 48.5387 24.861 47.68 25.925 47.68H39.7459C43.782 43.6956 49.0043 41.0669 54.5236 40.2681C55.5801 40.1013 56.5521 40.8419 56.7043 41.8919C56.8584 42.94 56.1291 43.915 55.0764 44.0669C50.151 44.7813 45.4945 47.2094 41.9679 50.905L41.3983 51.5013L37.475 51.52V74.56H43.297L54.1608 82.9226C55.3188 83.8563 56.7137 84.2726 58.1556 84.13C59.5843 83.9837 60.8701 83.29 61.7762 82.1763L63.0451 80.9124L64.5641 81.91L66.6057 83.68C67.5494 84.4487 69.0232 84.2913 69.841 83.2974L74.6535 77.3874L76.7664 79.1537C77.4826 79.72 78.5824 79.615 79.1764 78.8763L80.2705 77.5263C80.8664 76.7913 80.7537 75.7037 80.0168 75.1037L66.9609 64.5306C66.1357 63.8613 66.0116 62.6519 66.6809 61.8287C67.3482 61.0074 68.5607 60.88 69.3898 61.5494L82.4455 72.1263C83.2546 72.7827 83.7394 73.6462 84.0722 74.56H87.525V51.52H83.6375L83.0715 50.9444C78.6313 46.4294 72.6946 43.84 66.7842 43.84H65.8011C65.3725 43.84 64.9645 44.0031 64.6262 44.3106L53.4033 54.7863C52.1851 55.9526 52.3693 57.6494 53.2529 58.6187C53.5518 58.9526 54.3056 59.4513 55.1854 59.4944C55.802 59.5056 56.4017 59.3013 56.9449 58.81L57.022 58.8944C58.0109 57.8069 60.3926 55.6 66.1188 50.2937C66.8971 49.5756 68.1133 49.615 68.839 50.3931C69.5627 51.1694 69.5176 52.3844 68.7393 53.1063C68.7393 53.1063 62.1898 59.1756 60.167 61.06V61.0769L59.5392 61.6487C58.3191 62.7569 56.8623 63.3381 55.3057 63.3381C55.2023 63.3381 55.0989 63.3344 54.9936 63.3306C52.9314 63.2274 51.2658 62.1587 50.3955 61.1931C48.0248 58.5906 48.1246 54.6494 50.6041 52.1463L50.6492 52.0919L62.015 41.4906C63.0771 40.5231 64.4156 40 65.8011 40H66.7842C73.4635 40 80.1446 42.79 85.2371 47.68H99.075C100.139 47.68 101 48.5387 101 49.6C101 50.6613 100.139 51.52 99.075 51.52H91.375V76.48C91.375 77.5374 92.2379 78.4 93.3 78.4H99.075C100.139 78.4 101 79.2587 101 80.32Z" fill="#11FFBD"/>
</svg>
