<svg width="128" height="128" viewBox="0 0 128 128" fill="none" xmlns="http://www.w3.org/2000/svg">
<circle cx="64" cy="64" r="62.5" stroke="#11FFBD" stroke-width="3"/>
<path d="M73.7691 87.1241H55.2309C53.9494 87.1241 52.9108 88.1617 52.9127 89.4404L52.9182 92.6767C52.9195 93.5834 53.189 94.4691 53.6923 95.2238L56.1693 98.9361C56.9264 100.071 58.6644 101 60.0311 101H68.9734C70.3379 101 72.0726 100.073 72.8284 98.9401L75.3014 95.2335C75.7293 94.5916 76.0808 93.436 76.0818 92.6655L76.0873 89.4404C76.0892 88.1617 75.0506 87.1241 73.7691 87.1241ZM71.4415 92.6717L69.099 96.214C69.03 96.2767 68.8548 96.3704 68.9734 96.3754L60.2386 96.3923C60.1772 96.3772 60.0773 96.3298 60.0359 96.3298C60.0156 96.3298 60.0094 96.3416 60.029 96.3743L57.5544 92.6694L57.5531 91.7487H71.4531L71.4537 92.4972C71.4444 92.5621 71.4079 92.6874 71.4248 92.6874C71.4279 92.6874 71.4334 92.6824 71.4415 92.6717ZM82.4342 34.414C77.6054 29.6133 71.1015 26.8359 64.4186 27.0075C50.403 27.0481 39 38.5463 39 52.6367C39 58.8373 41.2412 64.8257 45.3094 69.4909C47.2404 71.7038 50.5027 76.658 51.6458 80.4786C51.802 81.7341 52.9272 82.5922 54.2018 82.4613C55.4627 82.3212 56.3727 81.1651 56.246 79.9096L56.1577 79.4309C54.6635 74.3773 50.9418 68.9038 48.8069 66.456C45.4724 62.6309 43.6364 57.7218 43.6364 52.6367C43.6364 40.8947 52.771 31.6682 64.432 31.6321H64.5C70.0238 31.6321 75.2284 33.7817 79.1608 37.6927C83.1609 41.6669 85.3636 46.9778 85.3636 52.6367C85.3636 57.7218 83.5276 62.6309 80.1952 66.456C78.0582 68.9038 74.3365 74.3773 72.8423 79.4309L72.7517 79.9142C72.6 81.1787 73.4672 82.4568 74.7326 82.6148C74.8458 82.6283 74.9544 82.6373 75.0631 82.6373C76.1928 82.6373 77.1437 81.8967 77.2885 80.7406C78.4973 76.658 81.7596 71.7038 83.693 69.4909C87.7588 64.8257 90 58.8373 90 52.6367C90 45.7405 87.3128 39.2688 82.4342 34.414ZM66.8182 38.5689C66.8182 37.2908 65.7814 36.2565 64.5 36.2565C55.5533 36.2565 48.2727 43.5157 48.2727 52.4413C48.2727 53.7193 49.3095 54.7536 50.5909 54.7536C51.8723 54.7536 52.9091 53.7193 52.9091 52.4413C52.9091 46.0673 58.1069 40.8805 64.5 40.8805C65.7814 40.8805 66.8182 39.8469 66.8182 38.5689Z" fill="#11FFBD"/>
</svg>
