<svg width="2175" height="2175" viewBox="0 0 2175 2175" fill="none" xmlns="http://www.w3.org/2000/svg">
<g filter="url(#filter0_d)">
<circle cx="1087.57" cy="1083.26" r="1083.16" fill="#071125"/>
</g>
<circle cx="1084.2" cy="1490.92" r="72.4352" fill="#11FFBD"/>
<circle cx="679.909" cy="1490.92" r="72.4352" fill="#11FFBD"/>
<circle cx="1488.49" cy="1490.92" r="72.4352" fill="#11FFBD"/>
<circle cx="1286.34" cy="1490.92" r="72.4352" fill="#11FFBD"/>
<circle cx="882.05" cy="1288.78" r="72.4352" fill="#11FFBD"/>
<circle cx="882.05" cy="1490.92" r="72.4352" fill="#11FFBD"/>
<circle cx="1084.2" cy="682.343" r="72.4352" fill="#11FFBD"/>
<circle cx="679.909" cy="682.343" r="72.4352" fill="#11FFBD"/>
<circle cx="1488.49" cy="682.343" r="72.4352" fill="#11FFBD"/>
<circle cx="1286.34" cy="682.343" r="72.4352" fill="#11FFBD"/>
<circle cx="882.05" cy="682.343" r="72.4352" fill="#11FFBD"/>
<circle cx="1488.49" cy="884.486" r="72.4352" fill="#11FFBD"/>
<circle cx="882.05" cy="884.486" r="72.4352" fill="#11FFBD"/>
<circle cx="1084.2" cy="1086.63" r="72.4352" fill="#11FFBD"/>
<circle cx="1488.49" cy="1288.78" r="72.4352" fill="#11FFBD"/>
<path d="M1493.54 892.103V684.027H678.221L1085.88 1092.26L678.221 1495.98H1493.54V1295.82" stroke="#11FFBD" stroke-width="20"/>
<circle cx="1288.79" cy="1093.34" r="55.5898" fill="#2DA78E"/>
<circle cx="1489.04" cy="1093.34" r="55.5898" fill="#2DA78E"/>
<circle cx="1690.63" cy="682.341" r="55.5898" fill="#2DA78E"/>
<circle cx="1288.79" cy="883.992" r="55.5898" fill="#2DA78E"/>
<circle cx="1690.63" cy="884.487" r="55.5898" fill="#2DA78E"/>
<circle cx="1690.63" cy="1490.92" r="55.5898" fill="#2DA78E"/>
<circle cx="1692.32" cy="1691.38" r="37.0599" fill="#2D6363"/>
<circle cx="1507.02" cy="1859.84" r="37.0599" fill="#2D6363"/>
<circle cx="678.232" cy="1859.84" r="37.0599" fill="#2D6363"/>
<circle cx="479.451" cy="1691.38" r="37.0599" fill="#2D6363"/>
<circle cx="883.742" cy="1859.84" r="37.0599" fill="#2D6363"/>
<circle cx="1085.89" cy="1859.84" r="37.0599" fill="#2D6363"/>
<circle cx="1288.03" cy="1859.84" r="37.0599" fill="#2D6363"/>
<circle cx="1507.02" cy="310.058" r="37.0599" fill="#2D6363"/>
<circle cx="678.232" cy="310.058" r="37.0599" fill="#2D6363"/>
<circle cx="883.742" cy="310.058" r="37.0599" fill="#2D6363"/>
<circle cx="1085.89" cy="310.058" r="37.0599" fill="#2D6363"/>
<circle cx="1288.03" cy="310.058" r="37.0599" fill="#2D6363"/>
<circle cx="1857.41" cy="684.027" r="37.0599" fill="#2D6363"/>
<circle cx="1692.32" cy="478.514" r="37.0599" fill="#2D6363"/>
<circle cx="1857.41" cy="882.805" r="37.0599" fill="#2D6363"/>
<circle cx="1857.41" cy="1088.32" r="37.0599" fill="#2D6363"/>
<circle cx="1857.41" cy="1287.09" r="37.0599" fill="#2D6363"/>
<circle cx="1857.41" cy="1489.24" r="37.0599" fill="#2D6363"/>
<circle cx="310.99" cy="882.805" r="37.0599" fill="#2D6363"/>
<circle cx="310.99" cy="1088.32" r="37.0599" fill="#2D6363"/>
<circle cx="310.99" cy="1287.09" r="37.0599" fill="#2D6363"/>
<circle cx="310.99" cy="1489.24" r="37.0599" fill="#2D6363"/>
<circle cx="1690.63" cy="1288.78" r="55.5898" fill="#2DA78E"/>
<circle cx="1690.63" cy="1093.34" r="55.5898" fill="#2DA78E"/>
<circle cx="1084.2" cy="1693.07" r="55.5898" fill="#2DA78E"/>
<circle cx="1505.34" cy="1693.07" r="55.5898" fill="#2DA78E"/>
<circle cx="1286.35" cy="1693.07" r="55.5898" fill="#2DA78E"/>
<circle cx="676.548" cy="1693.07" r="55.5898" fill="#2DA78E"/>
<circle cx="882.059" cy="1693.07" r="55.5898" fill="#2DA78E"/>
<circle cx="1084.2" cy="476.83" r="55.5898" fill="#2DA78E"/>
<circle cx="1505.34" cy="476.83" r="55.5898" fill="#2DA78E"/>
<circle cx="1286.35" cy="476.83" r="55.5898" fill="#2DA78E"/>
<circle cx="663.063" cy="476.83" r="55.5898" fill="#2DA78E"/>
<circle cx="882.059" cy="480.198" r="55.5898" fill="#2DA78E"/>
<circle cx="477.767" cy="1090" r="55.5898" fill="#2DA78E"/>
<circle cx="477.767" cy="682.341" r="55.5898" fill="#2DA78E"/>
<circle cx="477.767" cy="884.487" r="55.5898" fill="#2DA78E"/>
<circle cx="477.767" cy="1490.92" r="55.5898" fill="#2DA78E"/>
<circle cx="477.767" cy="1288.78" r="55.5898" fill="#2DA78E"/>
<circle cx="1088.55" cy="1093.34" r="55.5898" fill="#11FFBD" fill-opacity="0.5"/>
<circle cx="1084.2" cy="1284.49" r="55.5898" fill="#2DA78E"/>
<circle cx="1288.79" cy="1284.49" r="55.5898" fill="#2DA78E"/>
<circle cx="1084.2" cy="884.487" r="55.5898" fill="#11FFBD" fill-opacity="0.5"/>
<circle cx="1088.55" cy="884.487" r="55.5898" fill="#2DA78E"/>
<circle cx="679.908" cy="884.487" r="55.5898" fill="#2DA78E"/>
<circle cx="679.908" cy="1090" r="55.5898" fill="#2DA78E"/>
<circle cx="679.908" cy="1288.78" r="55.5898" fill="#2DA78E"/>
<circle cx="882.059" cy="1090" r="55.5898" fill="#2DA78E"/>
<circle cx="310.99" cy="684.027" r="37.0599" fill="#2D6363"/>
<circle cx="479.451" cy="475.143" r="37.0599" fill="#2D6363"/>
<defs>
<filter id="filter0_d" x="0.410156" y="0.103516" width="2174.32" height="2174.32" filterUnits="userSpaceOnUse" color-interpolation-filters="sRGB">
<feFlood flood-opacity="0" result="BackgroundImageFix"/>
<feColorMatrix in="SourceAlpha" type="matrix" values="0 0 0 0 0 0 0 0 0 0 0 0 0 0 0 0 0 0 127 0"/>
<feOffset dy="4"/>
<feGaussianBlur stdDeviation="2"/>
<feColorMatrix type="matrix" values="0 0 0 0 0 0 0 0 0 0 0 0 0 0 0 0 0 0 0.25 0"/>
<feBlend mode="normal" in2="BackgroundImageFix" result="effect1_dropShadow"/>
<feBlend mode="normal" in="SourceGraphic" in2="effect1_dropShadow" result="shape"/>
</filter>
</defs>
</svg>
