<svg width="421" height="592" viewBox="0 0 421 592" fill="none" xmlns="http://www.w3.org/2000/svg">
<g clip-path="url(#clip0)">
<path d="M10.5398 591.52H364C366.484 591.52 368.934 590.933 371.148 589.806C373.363 588.68 375.279 587.045 376.742 585.037C378.204 583.028 379.171 580.703 379.564 578.249C379.956 575.796 379.763 573.284 379 570.92L326.39 408C326.178 407.34 325.821 406.736 325.346 406.232C324.87 405.729 324.288 405.338 323.642 405.088C322.995 404.839 322.301 404.737 321.61 404.791C320.92 404.845 320.25 405.053 319.65 405.4L8.67983 584.57C7.96644 584.978 7.40805 585.61 7.0918 586.368C6.77555 587.126 6.71924 587.968 6.93164 588.762C7.14405 589.555 7.61323 590.256 8.26595 590.755C8.91868 591.254 9.71823 591.523 10.5398 591.52Z" fill="#8F99AD"/>
<path d="M-6.20184e-05 204.81C-0.119771 187.285 3.50972 169.937 10.6449 153.93C17.7801 137.922 28.2561 123.626 41.3699 112L163.68 3.60999C165.184 2.27322 166.952 1.26796 168.871 0.659551C170.789 0.0511448 172.813 -0.146781 174.813 0.0786407C176.812 0.304063 178.742 0.947786 180.477 1.96796C182.211 2.98813 183.711 4.36191 184.88 5.99999L416.62 331.74C418.266 334.055 419.411 336.689 419.98 339.472C420.549 342.255 420.53 345.127 419.925 347.902C419.32 350.678 418.141 353.296 416.464 355.59C414.788 357.883 412.651 359.801 410.19 361.22L11.8899 590.68C10.9463 591.224 9.87666 591.51 8.78761 591.512C7.69857 591.513 6.62819 591.229 5.6832 590.688C4.7382 590.146 3.95161 589.367 3.40185 588.427C2.85208 587.487 2.55835 586.419 2.54994 585.33L-6.20184e-05 204.81Z" fill="#FAFAFA"/>
</g>
<defs>
<clipPath id="clip0">
<rect width="420.4" height="591.52" fill="white"/>
</clipPath>
</defs>
</svg>
