<svg width="256" height="256" viewBox="0 0 256 256" fill="none" xmlns="http://www.w3.org/2000/svg">
<rect width="256" height="256" rx="128" fill="#182848"/>
<circle cx="127.7" cy="164.661" r="6.51453" fill="#11FFBD"/>
<circle cx="91.3407" cy="164.661" r="6.51453" fill="#11FFBD"/>
<circle cx="164.059" cy="164.661" r="6.51453" fill="#11FFBD"/>
<circle cx="145.876" cy="164.661" r="6.51453" fill="#11FFBD"/>
<circle cx="109.516" cy="146.481" r="6.51453" fill="#11FFBD"/>
<circle cx="109.516" cy="164.661" r="6.51453" fill="#11FFBD"/>
<circle cx="127.7" cy="91.9418" r="6.51453" fill="#11FFBD"/>
<circle cx="91.3407" cy="91.9418" r="6.51453" fill="#11FFBD"/>
<circle cx="164.059" cy="91.9418" r="6.51453" fill="#11FFBD"/>
<circle cx="145.876" cy="91.9418" r="6.51453" fill="#11FFBD"/>
<circle cx="109.516" cy="91.9418" r="6.51453" fill="#11FFBD"/>
<circle cx="164.059" cy="110.122" r="6.51453" fill="#11FFBD"/>
<circle cx="109.516" cy="110.122" r="6.51453" fill="#11FFBD"/>
<circle cx="127.7" cy="128.302" r="6.51453" fill="#11FFBD"/>
<circle cx="164.059" cy="146.481" r="6.51453" fill="#11FFBD"/>
<path d="M164.514 110.81V92.0962H91.1875L127.851 128.811L91.1875 165.12H164.514V147.118" stroke="#11FFBD" stroke-width="3"/>
<circle cx="164.059" cy="128.608" r="4.99952" fill="#149482"/>
<circle cx="182.235" cy="128.608" r="4.99952" fill="#149482"/>
<circle cx="182.235" cy="91.9414" r="4.99952" fill="#149482"/>
<circle cx="182.235" cy="110.126" r="4.99952" fill="#149482"/>
<circle cx="182.235" cy="164.661" r="4.99952" fill="#149482"/>
<circle cx="182.386" cy="182.693" r="3.33302" fill="#17485A"/>
<circle cx="165.726" cy="197.844" r="3.33302" fill="#17485A"/>
<circle cx="91.1885" cy="197.844" r="3.33302" fill="#17485A"/>
<circle cx="73.3066" cy="182.693" r="3.33302" fill="#17485A"/>
<circle cx="109.666" cy="197.844" r="3.33302" fill="#17485A"/>
<circle cx="127.842" cy="197.844" r="3.33302" fill="#17485A"/>
<circle cx="146.035" cy="197.844" r="3.33302" fill="#17485A"/>
<circle cx="165.726" cy="58.4639" r="3.33302" fill="#17485A"/>
<circle cx="91.1885" cy="58.4639" r="3.33302" fill="#17485A"/>
<circle cx="109.666" cy="58.4639" r="3.33302" fill="#17485A"/>
<circle cx="127.842" cy="58.4639" r="3.33302" fill="#17485A"/>
<circle cx="146.035" cy="58.4639" r="3.33302" fill="#17485A"/>
<circle cx="197.238" cy="92.0972" r="3.33302" fill="#17485A"/>
<circle cx="182.386" cy="73.6099" r="3.33302" fill="#17485A"/>
<circle cx="197.238" cy="109.974" r="3.33302" fill="#17485A"/>
<circle cx="197.238" cy="128.457" r="3.33302" fill="#17485A"/>
<circle cx="197.238" cy="146.334" r="3.33302" fill="#17485A"/>
<circle cx="197.238" cy="164.509" r="3.33302" fill="#17485A"/>
<circle cx="58.1611" cy="109.974" r="3.33302" fill="#17485A"/>
<circle cx="58.1611" cy="128.457" r="3.33302" fill="#17485A"/>
<circle cx="58.1611" cy="146.334" r="3.33302" fill="#17485A"/>
<circle cx="58.1611" cy="164.509" r="3.33302" fill="#17485A"/>
<circle cx="182.235" cy="146.485" r="4.99952" fill="#149482"/>
<circle cx="127.7" cy="182.845" r="4.99952" fill="#149482"/>
<circle cx="165.574" cy="182.845" r="4.99952" fill="#149482"/>
<circle cx="145.876" cy="182.845" r="4.99952" fill="#149482"/>
<circle cx="91.0278" cy="182.845" r="4.99952" fill="#149482"/>
<circle cx="109.515" cy="182.845" r="4.99952" fill="#149482"/>
<circle cx="127.7" cy="73.4585" r="4.99952" fill="#149482"/>
<circle cx="165.574" cy="73.4585" r="4.99952" fill="#149482"/>
<circle cx="145.876" cy="73.4585" r="4.99952" fill="#149482"/>
<circle cx="89.8257" cy="73.4585" r="4.99952" fill="#149482"/>
<circle cx="109.515" cy="73.7661" r="4.99952" fill="#149482"/>
<circle cx="73.1558" cy="128.608" r="4.99952" fill="#149482"/>
<circle cx="73.1558" cy="91.9414" r="4.99952" fill="#149482"/>
<circle cx="73.1558" cy="110.126" r="4.99952" fill="#149482"/>
<circle cx="73.1558" cy="164.661" r="4.99952" fill="#149482"/>
<circle cx="73.1558" cy="146.485" r="4.99952" fill="#149482"/>
<circle cx="145.876" cy="128.608" r="4.99952" fill="#149482"/>
<circle cx="127.7" cy="146.485" r="4.99952" fill="#149482"/>
<circle cx="145.572" cy="146.485" r="4.99952" fill="#149482"/>
<circle cx="127.7" cy="110.126" r="4.99952" fill="#149482"/>
<circle cx="145.876" cy="110.126" r="4.99952" fill="#149482"/>
<circle cx="91.3403" cy="110.126" r="4.99952" fill="#149482"/>
<circle cx="91.3403" cy="128.608" r="4.99952" fill="#149482"/>
<circle cx="91.3403" cy="146.485" r="4.99952" fill="#149482"/>
<circle cx="109.515" cy="128.608" r="4.99952" fill="#149482"/>
<circle cx="58.1611" cy="92.0972" r="3.33302" fill="#17485A"/>
<circle cx="73.3066" cy="73.3066" r="3.33302" fill="#17485A"/>
<circle cx="128" cy="128" r="95.915" stroke="#11FFBD" stroke-width="3"/>
</svg>
